<svg xmlns="http://www.w3.org/2000/svg" viewBox="0 0 400 400" width="100%" height="100%">
  <rect width="400" height="400" fill="#FAF5EE" rx="24"/>
  <circle cx="200" cy="200" r="110" fill="#F4D58D" opacity="0.4"/>
  <!-- Plate -->
  <ellipse cx="200" cy="275" rx="125" ry="32" fill="#FFFDF8" stroke="#765747" stroke-width="4"/>
  <!-- Bottom Bun -->
  <path d="M120,240 C120,270 280,270 280,240 Z" fill="#F4D58D" stroke="#765747" stroke-width="4"/>
  <!-- Patty -->
  <rect x="110" y="220" width="180" height="24" rx="10" fill="#4A352C" stroke="#765747" stroke-width="3"/>
  <!-- Melted Cheddar -->
  <path d="M105,220 L295,220 L280,238 L250,225 L210,240 L180,225 L150,238 Z" fill="#F4D58D"/>
  <!-- Bacon / Tomato -->
  <rect x="115" y="205" width="170" height="15" rx="5" fill="#DFA7A0"/>
  <!-- Lettuce -->
  <path d="M100,205 C130,215 160,195 190,210 C220,195 250,215 285,205 L285,215 L100,215 Z" fill="#B7C9A8" stroke="#765747" stroke-width="2"/>
  <!-- Top Bun -->
  <path d="M115,200 C115,130 285,130 285,200 Z" fill="#F4D58D" stroke="#765747" stroke-width="4"/>
  <!-- Sesame seeds -->
  <ellipse cx="160" cy="155" rx="4" ry="2" fill="#FFFDF8"/>
  <ellipse cx="200" cy="145" rx="4" ry="2" fill="#FFFDF8"/>
  <ellipse cx="240" cy="155" rx="4" ry="2" fill="#FFFDF8"/>
  <ellipse cx="180" cy="170" rx="4" ry="2" fill="#FFFDF8"/>
  <ellipse cx="220" cy="168" rx="4" ry="2" fill="#FFFDF8"/>
</svg>
